<svg id="visual" viewBox="0 0 960 540" width="960" height="540" xmlns="http://www.w3.org/2000/svg" xmlns:xlink="http://www.w3.org/1999/xlink" version="1.1"><g stroke-width="1" stroke-linejoin="bevel"><path d="M515.3 254L503.3 157L451.7 213Z" fill="#131120" stroke="#131120"></path><path d="M515.3 254L609 203L503.3 157Z" fill="#696686" stroke="#696686"></path><path d="M451.7 213L432.7 302L515.3 254Z" fill="#827da3" stroke="#827da3"></path><path d="M515.3 254L636 260L609 203Z" fill="#1c1b2b" stroke="#1c1b2b"></path><path d="M432.7 302L448.7 321L515.3 254Z" fill="#131120" stroke="#131120"></path><path d="M609 203L508.3 71L503.3 157Z" fill="#131120" stroke="#131120"></path><path d="M503.3 157L405.7 64L451.7 213Z" fill="#827da3" stroke="#827da3"></path><path d="M518.3 355L636 260L515.3 254Z" fill="#757194" stroke="#757194"></path><path d="M448.7 321L518.3 355L515.3 254Z" fill="#5d5a78" stroke="#5d5a78"></path><path d="M508.3 71L405.7 64L503.3 157Z" fill="#1c1b2b" stroke="#1c1b2b"></path><path d="M451.7 213L321 209L432.7 302Z" fill="#1c1b2b" stroke="#1c1b2b"></path><path d="M405.7 64L321 209L451.7 213Z" fill="#757194" stroke="#757194"></path><path d="M432.7 302L325 365L448.7 321Z" fill="#262537" stroke="#262537"></path><path d="M737.7 111L660 73L609 203Z" fill="#827da3" stroke="#827da3"></path><path d="M609 203L660 73L508.3 71Z" fill="#5d5a78" stroke="#5d5a78"></path><path d="M508.3 71L399.7 0L405.7 64Z" fill="#696686" stroke="#696686"></path><path d="M321 209L301 270L432.7 302Z" fill="#696686" stroke="#696686"></path><path d="M448.7 321L458.7 443L518.3 355Z" fill="#131120" stroke="#131120"></path><path d="M660 73L544.3 0L508.3 71Z" fill="#302f43" stroke="#302f43"></path><path d="M399.7 0L340 64L405.7 64Z" fill="#757194" stroke="#757194"></path><path d="M405.7 64L340 64L321 209Z" fill="#5d5a78" stroke="#5d5a78"></path><path d="M321 209L244.3 278L301 270Z" fill="#5d5a78" stroke="#5d5a78"></path><path d="M518.3 355L623 394L636 260Z" fill="#131120" stroke="#131120"></path><path d="M759.7 185L737.7 111L609 203Z" fill="#514f6a" stroke="#514f6a"></path><path d="M544.3 0L399.7 0L508.3 71Z" fill="#514f6a" stroke="#514f6a"></path><path d="M301 270L325 365L432.7 302Z" fill="#46445d" stroke="#46445d"></path><path d="M518.3 355L512.3 468L623 394Z" fill="#1c1b2b" stroke="#1c1b2b"></path><path d="M325 365L458.7 443L448.7 321Z" fill="#262537" stroke="#262537"></path><path d="M660 73L648 0L544.3 0Z" fill="#3b3950" stroke="#3b3950"></path><path d="M759.7 185L609 203L636 260Z" fill="#696686" stroke="#696686"></path><path d="M660 73L724.7 0L648 0Z" fill="#262537" stroke="#262537"></path><path d="M783.7 241L759.7 185L636 260Z" fill="#757194" stroke="#757194"></path><path d="M399.7 0L341 0L340 64Z" fill="#5d5a78" stroke="#5d5a78"></path><path d="M175.3 211L244.3 278L321 209Z" fill="#757194" stroke="#757194"></path><path d="M458.7 443L512.3 468L518.3 355Z" fill="#302f43" stroke="#302f43"></path><path d="M186.3 129L321 209L340 64Z" fill="#302f43" stroke="#302f43"></path><path d="M301 270L244.3 278L325 365Z" fill="#302f43" stroke="#302f43"></path><path d="M777.7 345L783.7 241L636 260Z" fill="#46445d" stroke="#46445d"></path><path d="M819.3 55L724.7 0L737.7 111Z" fill="#827da3" stroke="#827da3"></path><path d="M819.3 55L737.7 111L759.7 185Z" fill="#827da3" stroke="#827da3"></path><path d="M737.7 111L724.7 0L660 73Z" fill="#5d5a78" stroke="#5d5a78"></path><path d="M710.7 451L777.7 345L623 394Z" fill="#827da3" stroke="#827da3"></path><path d="M623 394L777.7 345L636 260Z" fill="#46445d" stroke="#46445d"></path><path d="M512.3 468L675 468L623 394Z" fill="#514f6a" stroke="#514f6a"></path><path d="M675 468L710.7 451L623 394Z" fill="#757194" stroke="#757194"></path><path d="M179.3 0L186.3 129L340 64Z" fill="#1c1b2b" stroke="#1c1b2b"></path><path d="M186.3 129L175.3 211L321 209Z" fill="#696686" stroke="#696686"></path><path d="M196.3 364L299 483L325 365Z" fill="#5d5a78" stroke="#5d5a78"></path><path d="M392.7 540L539.3 540L512.3 468Z" fill="#696686" stroke="#696686"></path><path d="M512.3 468L539.3 540L675 468Z" fill="#1c1b2b" stroke="#1c1b2b"></path><path d="M675 468L739.7 540L710.7 451Z" fill="#262537" stroke="#262537"></path><path d="M392.7 540L512.3 468L458.7 443Z" fill="#696686" stroke="#696686"></path><path d="M777.7 345L831.3 289L783.7 241Z" fill="#696686" stroke="#696686"></path><path d="M876.3 180L819.3 55L759.7 185Z" fill="#1c1b2b" stroke="#1c1b2b"></path><path d="M823.3 376L831.3 289L777.7 345Z" fill="#46445d" stroke="#46445d"></path><path d="M196.3 364L325 365L244.3 278Z" fill="#46445d" stroke="#46445d"></path><path d="M325 365L299 483L458.7 443Z" fill="#262537" stroke="#262537"></path><path d="M175.3 211L196.3 364L244.3 278Z" fill="#302f43" stroke="#302f43"></path><path d="M299 483L392.7 540L458.7 443Z" fill="#46445d" stroke="#46445d"></path><path d="M876.3 180L759.7 185L783.7 241Z" fill="#3b3950" stroke="#3b3950"></path><path d="M710.7 451L823.3 376L777.7 345Z" fill="#5d5a78" stroke="#5d5a78"></path><path d="M186.3 540L343 540L299 483Z" fill="#5d5a78" stroke="#5d5a78"></path><path d="M299 483L343 540L392.7 540Z" fill="#46445d" stroke="#46445d"></path><path d="M539.3 540L665 540L675 468Z" fill="#46445d" stroke="#46445d"></path><path d="M710.7 451L816.3 461L823.3 376Z" fill="#5d5a78" stroke="#5d5a78"></path><path d="M960 217L876.3 180L960 277Z" fill="#262537" stroke="#262537"></path><path d="M831.3 289L876.3 180L783.7 241Z" fill="#131120" stroke="#131120"></path><path d="M341 0L179.3 0L340 64Z" fill="#1c1b2b" stroke="#1c1b2b"></path><path d="M186.3 129L103.7 175L175.3 211Z" fill="#46445d" stroke="#46445d"></path><path d="M100.7 115L103.7 175L186.3 129Z" fill="#46445d" stroke="#46445d"></path><path d="M79.7 302L116.7 364L196.3 364Z" fill="#757194" stroke="#757194"></path><path d="M739.7 540L816.3 461L710.7 451Z" fill="#46445d" stroke="#46445d"></path><path d="M960 277L876.3 180L831.3 289Z" fill="#827da3" stroke="#827da3"></path><path d="M196.3 364L201.3 484L299 483Z" fill="#3b3950" stroke="#3b3950"></path><path d="M116.7 485L201.3 484L196.3 364Z" fill="#514f6a" stroke="#514f6a"></path><path d="M665 540L739.7 540L675 468Z" fill="#5d5a78" stroke="#5d5a78"></path><path d="M179.3 0L100.7 115L186.3 129Z" fill="#131120" stroke="#131120"></path><path d="M79.7 302L196.3 364L175.3 211Z" fill="#757194" stroke="#757194"></path><path d="M960 82L867.3 0L819.3 55Z" fill="#757194" stroke="#757194"></path><path d="M819.3 55L867.3 0L724.7 0Z" fill="#262537" stroke="#262537"></path><path d="M103.7 175L79.7 302L175.3 211Z" fill="#46445d" stroke="#46445d"></path><path d="M0 236L79.7 302L103.7 175Z" fill="#696686" stroke="#696686"></path><path d="M179.3 0L103.7 0L100.7 115Z" fill="#757194" stroke="#757194"></path><path d="M100.7 115L0 213L103.7 175Z" fill="#1c1b2b" stroke="#1c1b2b"></path><path d="M141.7 540L186.3 540L201.3 484Z" fill="#514f6a" stroke="#514f6a"></path><path d="M201.3 484L186.3 540L299 483Z" fill="#302f43" stroke="#302f43"></path><path d="M116.7 485L196.3 364L116.7 364Z" fill="#3b3950" stroke="#3b3950"></path><path d="M960 277L831.3 289L960 350Z" fill="#514f6a" stroke="#514f6a"></path><path d="M876.3 180L960 82L819.3 55Z" fill="#827da3" stroke="#827da3"></path><path d="M960 350L831.3 289L823.3 376Z" fill="#3b3950" stroke="#3b3950"></path><path d="M0 453L116.7 485L116.7 364Z" fill="#302f43" stroke="#302f43"></path><path d="M960 217L960 82L876.3 180Z" fill="#3b3950" stroke="#3b3950"></path><path d="M960 433L823.3 376L816.3 461Z" fill="#5d5a78" stroke="#5d5a78"></path><path d="M960 433L960 350L823.3 376Z" fill="#696686" stroke="#696686"></path><path d="M116.7 485L141.7 540L201.3 484Z" fill="#46445d" stroke="#46445d"></path><path d="M79.7 302L0 359L116.7 364Z" fill="#757194" stroke="#757194"></path><path d="M0 53L0 213L100.7 115Z" fill="#514f6a" stroke="#514f6a"></path><path d="M0 213L0 236L103.7 175Z" fill="#696686" stroke="#696686"></path><path d="M116.7 485L0 540L141.7 540Z" fill="#757194" stroke="#757194"></path><path d="M739.7 540L876.3 540L816.3 461Z" fill="#827da3" stroke="#827da3"></path><path d="M960 82L960 0L867.3 0Z" fill="#46445d" stroke="#46445d"></path><path d="M876.3 540L960 433L816.3 461Z" fill="#757194" stroke="#757194"></path><path d="M0 236L0 359L79.7 302Z" fill="#3b3950" stroke="#3b3950"></path><path d="M103.7 0L0 53L100.7 115Z" fill="#302f43" stroke="#302f43"></path><path d="M103.7 0L0 0L0 53Z" fill="#514f6a" stroke="#514f6a"></path><path d="M0 359L0 453L116.7 364Z" fill="#1c1b2b" stroke="#1c1b2b"></path><path d="M876.3 540L960 540L960 433Z" fill="#827da3" stroke="#827da3"></path><path d="M0 453L0 540L116.7 485Z" fill="#302f43" stroke="#302f43"></path></g></svg>