<svg xmlns="http://www.w3.org/2000/svg" version="1.1" xmlns:xlink="http://www.w3.org/1999/xlink" xmlns:svgjs="http://svgjs.dev/svgjs" width="1440" height="700" preserveAspectRatio="none" viewBox="0 0 1440 700"><g mask="url(&quot;#SvgjsMask1022&quot;)" fill="none"><rect width="1440" height="700" x="0" y="0" fill="url(&quot;#SvgjsLinearGradient1023&quot;)"></rect><path d="M548.81 784.32C719.35 769.8 836.09 421.82 1129.34 421.39 1422.58 420.96 1556.7 614.77 1709.86 617.39" stroke="rgba(199, 27, 82, 1)" stroke-width="2"></path><path d="M831.16 809.96C908.62 803.34 862.48 664.71 1094.72 644.96 1326.97 625.21 1467.06 329.09 1621.85 315.96" stroke="rgba(199, 27, 82, 1)" stroke-width="2"></path><path d="M375.84 818.26C525.99 760.06 542.22 317.23 762.82 303.34 983.42 289.45 956.31 390.84 1149.81 390.84 1343.3 390.84 1437.6 303.88 1536.79 303.34" stroke="rgba(199, 27, 82, 1)" stroke-width="2"></path><path d="M620.68 818.78C763.24 744.75 692.03 277.37 959.9 273.07 1227.77 268.77 1460.81 480.69 1638.34 483.07" stroke="rgba(199, 27, 82, 1)" stroke-width="2"></path><path d="M402.66 800.4C521.65 790.45 601.48 549.42 808.53 548.6 1015.58 547.78 1011.47 636.1 1214.4 636.1 1417.34 636.1 1516.47 549.09 1620.27 548.6" stroke="rgba(199, 27, 82, 1)" stroke-width="2"></path></g><defs><mask id="SvgjsMask1022"><rect width="1440" height="700" fill="#ffffff"></rect></mask><linearGradient x1="12.85%" y1="-26.43%" x2="87.15%" y2="126.43%" gradientUnits="userSpaceOnUse" id="SvgjsLinearGradient1023"><stop stop-color="rgba(14, 42, 71, 1)" offset="0"></stop><stop stop-color="rgba(46, 12, 56, 1)" offset="1"></stop></linearGradient></defs></svg>