<svg id="visual" viewBox="0 0 900 600" width="900" height="600" xmlns="http://www.w3.org/2000/svg" xmlns:xlink="http://www.w3.org/1999/xlink" version="1.1"><rect x="0" y="0" width="900" height="600" fill="#131120"></rect><path d="M0 345L21.5 350.5C43 356 86 367 128.8 369.5C171.7 372 214.3 366 257.2 361C300 356 343 352 385.8 360.5C428.7 369 471.3 390 514.2 384.3C557 378.7 600 346.3 642.8 344.5C685.7 342.7 728.3 371.3 771.2 371.5C814 371.7 857 343.3 878.5 329.2L900 315L900 601L878.5 601C857 601 814 601 771.2 601C728.3 601 685.7 601 642.8 601C600 601 557 601 514.2 601C471.3 601 428.7 601 385.8 601C343 601 300 601 257.2 601C214.3 601 171.7 601 128.8 601C86 601 43 601 21.5 601L0 601Z" fill="#8316b9"></path><path d="M0 395L21.5 403C43 411 86 427 128.8 424.8C171.7 422.7 214.3 402.3 257.2 401.3C300 400.3 343 418.7 385.8 425C428.7 431.3 471.3 425.7 514.2 412C557 398.3 600 376.7 642.8 365.5C685.7 354.3 728.3 353.7 771.2 363.2C814 372.7 857 392.3 878.5 402.2L900 412L900 601L878.5 601C857 601 814 601 771.2 601C728.3 601 685.7 601 642.8 601C600 601 557 601 514.2 601C471.3 601 428.7 601 385.8 601C343 601 300 601 257.2 601C214.3 601 171.7 601 128.8 601C86 601 43 601 21.5 601L0 601Z" fill="#711db0"></path><path d="M0 413L21.5 422.5C43 432 86 451 128.8 461.3C171.7 471.7 214.3 473.3 257.2 473C300 472.7 343 470.3 385.8 466.8C428.7 463.3 471.3 458.7 514.2 459.2C557 459.7 600 465.3 642.8 454.5C685.7 443.7 728.3 416.3 771.2 407C814 397.7 857 406.3 878.5 410.7L900 415L900 601L878.5 601C857 601 814 601 771.2 601C728.3 601 685.7 601 642.8 601C600 601 557 601 514.2 601C471.3 601 428.7 601 385.8 601C343 601 300 601 257.2 601C214.3 601 171.7 601 128.8 601C86 601 43 601 21.5 601L0 601Z" fill="#6020a7"></path><path d="M0 502L21.5 503C43 504 86 506 128.8 506.8C171.7 507.7 214.3 507.3 257.2 499.5C300 491.7 343 476.3 385.8 473.5C428.7 470.7 471.3 480.3 514.2 475.7C557 471 600 452 642.8 445.2C685.7 438.3 728.3 443.7 771.2 456C814 468.3 857 487.7 878.5 497.3L900 507L900 601L878.5 601C857 601 814 601 771.2 601C728.3 601 685.7 601 642.8 601C600 601 557 601 514.2 601C471.3 601 428.7 601 385.8 601C343 601 300 601 257.2 601C214.3 601 171.7 601 128.8 601C86 601 43 601 21.5 601L0 601Z" fill="#4f229d"></path><path d="M0 525L21.5 519.7C43 514.3 86 503.7 128.8 499.5C171.7 495.3 214.3 497.7 257.2 498.8C300 500 343 500 385.8 503.3C428.7 506.7 471.3 513.3 514.2 518.2C557 523 600 526 642.8 528.8C685.7 531.7 728.3 534.3 771.2 533.7C814 533 857 529 878.5 527L900 525L900 601L878.5 601C857 601 814 601 771.2 601C728.3 601 685.7 601 642.8 601C600 601 557 601 514.2 601C471.3 601 428.7 601 385.8 601C343 601 300 601 257.2 601C214.3 601 171.7 601 128.8 601C86 601 43 601 21.5 601L0 601Z" fill="#3e2292"></path><path d="M0 535L21.5 537.3C43 539.7 86 544.3 128.8 544.2C171.7 544 214.3 539 257.2 534.7C300 530.3 343 526.7 385.8 533C428.7 539.3 471.3 555.7 514.2 559C557 562.3 600 552.7 642.8 545.2C685.7 537.7 728.3 532.3 771.2 531.5C814 530.7 857 534.3 878.5 536.2L900 538L900 601L878.5 601C857 601 814 601 771.2 601C728.3 601 685.7 601 642.8 601C600 601 557 601 514.2 601C471.3 601 428.7 601 385.8 601C343 601 300 601 257.2 601C214.3 601 171.7 601 128.8 601C86 601 43 601 21.5 601L0 601Z" fill="#2d2187"></path></svg>