<svg xmlns="http://www.w3.org/2000/svg" version="1.1" xmlns:xlink="http://www.w3.org/1999/xlink" xmlns:svgjs="http://svgjs.dev/svgjs" width="1440" height="560" preserveAspectRatio="none" viewBox="0 0 1440 560"><g mask="url(&quot;#SvgjsMask1015&quot;)" fill="none"><rect width="1440" height="560" x="0" y="0" fill="url(&quot;#SvgjsLinearGradient1016&quot;)"></rect><path d="M215.16 601.43C421.32 585.34 565.1 175.03 923.52 174.38 1281.95 173.73 1447.39 379.47 1631.89 381.58" stroke="rgba(199, 27, 82, 1)" stroke-width="2"></path><path d="M812.17 599.9C941.13 566.53 989.77 214.7 1178.84 213.28 1367.91 211.86 1441.1 408.38 1545.51 414.88" stroke="rgba(199, 27, 82, 1)" stroke-width="2"></path><path d="M171.49 634.09C359.74 628.31 500.14 349.37 866.45 343.28 1232.76 337.19 1382.34 170.99 1561.41 169.68" stroke="rgba(199, 27, 82, 1)" stroke-width="2"></path><path d="M99.75 625.39C277.31 624.83 435.56 498.18 797.84 494.58 1160.12 490.98 1309.95 241.05 1495.93 236.98" stroke="rgba(199, 27, 82, 1)" stroke-width="2"></path><path d="M688 600.6C814.3 587.33 865.99 330.67 1107.32 313.84 1348.65 297.01 1411.02 122.6 1526.64 117.84" stroke="rgba(199, 27, 82, 1)" stroke-width="2"></path></g><defs><mask id="SvgjsMask1015"><rect width="1440" height="560" fill="#ffffff"></rect></mask><linearGradient x1="15.28%" y1="-39.29%" x2="84.72%" y2="139.29%" gradientUnits="userSpaceOnUse" id="SvgjsLinearGradient1016"><stop stop-color="rgba(14, 42, 71, 1)" offset="0"></stop><stop stop-color="rgba(46, 12, 56, 1)" offset="1"></stop></linearGradient></defs></svg>